<svg width="488" height="151" viewBox="0 0 488 151" fill="none" xmlns="http://www.w3.org/2000/svg">
<path d="M258.707 120.541V135.277H253.274V149.601H236.974V115.533C236.974 109.126 238.95 103.844 242.901 99.659C246.853 95.4744 251.833 93.375 257.829 93.375C264.442 93.375 269.972 96.2151 274.431 101.895L261.039 111.678C260.285 109.634 258.954 108.605 257.061 108.605C254.536 108.605 253.274 110.32 253.274 113.763V120.541H258.707ZM303.764 93.375C311.53 93.375 318.198 96.2015 323.755 101.854C329.312 107.521 332.097 114.285 332.097 122.16C332.097 130.187 329.298 136.992 323.7 142.59C318.102 148.201 311.297 151 303.284 151C295.326 151 288.535 148.188 282.91 142.562C277.284 136.923 274.472 130.132 274.472 122.16C274.472 114.12 277.298 107.315 282.965 101.745C288.631 96.1602 295.573 93.375 303.764 93.375ZM303.284 109.592C299.937 109.592 297.083 110.827 294.723 113.283C292.363 115.739 291.183 118.717 291.183 122.188C291.183 125.659 292.363 128.636 294.736 131.092C297.11 133.548 299.964 134.783 303.284 134.783C306.659 134.783 309.527 133.562 311.873 131.106C314.219 128.664 315.385 125.686 315.385 122.188C315.385 118.689 314.219 115.712 311.873 113.269C309.527 110.814 306.659 109.592 303.284 109.592ZM365.794 93.375C373.56 93.375 380.228 96.2015 385.784 101.854C391.341 107.521 394.126 114.285 394.126 122.16C394.126 130.187 391.327 136.992 385.729 142.59C380.131 148.201 373.326 151 365.314 151C357.356 151 350.564 148.188 344.939 142.562C339.314 136.923 336.501 130.132 336.501 122.16C336.501 114.12 339.327 107.315 344.994 101.745C350.66 96.1602 357.603 93.375 365.794 93.375ZM365.314 109.592C361.966 109.592 359.112 110.827 356.752 113.283C354.392 115.739 353.212 118.717 353.212 122.188C353.212 125.659 354.392 128.636 356.766 131.092C359.139 133.548 361.993 134.783 365.314 134.783C368.689 134.783 371.556 133.562 373.902 131.106C376.249 128.664 377.415 125.686 377.415 122.188C377.415 118.689 376.249 115.712 373.902 113.269C371.556 110.814 368.689 109.592 365.314 109.592ZM418.123 110.498V149.601H401.823V94.6923H423.049C432.365 94.6923 439.664 96.805 444.946 101.045C451.216 106.121 454.345 112.995 454.345 121.694C454.345 130.008 451.669 136.786 446.304 142.041C440.953 147.296 434.052 149.93 425.614 149.93C424.626 149.93 423.007 149.875 420.757 149.765V133.63H423.364C432.872 133.63 437.633 129.651 437.633 121.707C437.633 114.23 432.955 110.498 423.611 110.498H418.123ZM487.849 94.4453V110.114C486.669 109.771 485.75 109.592 485.119 109.592C483.884 109.592 482.814 110.045 481.936 110.965C481.044 111.87 480.605 112.968 480.605 114.257C480.605 115.355 481.085 116.741 482.059 118.428L483.308 120.596C485.572 124.507 486.697 128.28 486.697 131.929C486.697 137.253 484.803 141.767 481.003 145.457C477.202 149.148 472.565 151 467.091 151C464.456 151 461.863 150.383 459.284 149.162V133.274C460.834 134.275 462.22 134.783 463.427 134.783C464.854 134.783 466.034 134.371 466.994 133.562C467.941 132.739 468.421 131.71 468.421 130.475C468.421 129.679 467.667 127.923 466.144 125.22C463.715 120.925 462.494 116.645 462.494 112.35C462.494 107.178 464.333 102.719 468.023 98.9867C471.701 95.241 476.105 93.375 481.222 93.375C483.472 93.375 485.682 93.7318 487.849 94.4453Z" fill="#7E3362"/>
<path d="M105.848 129.974V150.168C104.246 150.435 102.785 150.56 101.468 150.56C93.6505 150.56 87.1506 147.978 81.9332 142.831C76.7156 137.685 74.1158 131.239 74.1158 123.475C74.1158 115.924 76.7512 109.532 82.0222 104.278C87.2752 99.0253 93.6861 96.3896 101.236 96.3896C109.641 96.3896 116.266 98.8473 121.127 103.78C125.971 108.712 128.393 115.444 128.393 123.973V149.491H108.84V125.38C108.84 122.638 108.181 120.447 106.845 118.809C105.528 117.189 103.729 116.37 101.486 116.37C99.4556 116.37 97.6927 117.118 96.2146 118.613C94.7366 120.109 93.9887 121.872 93.9887 123.92C93.9887 126.075 94.6654 127.855 96.001 129.244C97.3542 130.633 99.0637 131.328 101.129 131.328C102.821 131.328 104.406 130.882 105.848 129.974ZM159.253 97.4582V149.491H139.7V97.4582H159.253ZM149.583 74.2729C152.236 74.2729 154.516 75.1989 156.457 77.0688C158.398 78.9207 159.359 81.1288 159.359 83.6752C159.359 86.3821 158.451 88.6258 156.617 90.3531C154.783 92.0982 152.45 92.9707 149.583 92.9707C146.734 92.9707 144.383 92.0982 142.549 90.3531C140.715 88.6258 139.807 86.3821 139.807 83.6752C139.807 81.1288 140.769 78.9207 142.71 77.0688C144.651 75.1989 146.93 74.2729 149.583 74.2729ZM217.055 149.491H197.503V120.109C197.503 117.118 196.292 115.622 193.852 115.622C191.448 115.622 190.237 117.118 190.237 120.109V149.491H170.685V120.465C170.685 113.698 172.929 107.982 177.416 103.352C181.903 98.7046 187.388 96.3896 193.906 96.3896C201.331 96.3896 207.297 99.0787 211.784 104.474C215.292 108.677 217.055 114.536 217.055 122.032V149.491ZM0.152527 149.491V104.478C0.152527 98.9061 1.83825 94.3642 5.22528 90.8211C8.61206 87.2939 12.998 85.5301 18.3983 85.5301C24.7975 85.5301 29.714 88.4644 33.1634 94.3175C35.2704 91.149 37.5334 88.9015 39.9372 87.5592C42.3562 86.2014 45.3217 85.5301 48.8647 85.5301C54.4837 85.5301 58.7914 87.2939 61.7881 90.8211C64.7691 94.3642 66.2677 99.4367 66.2677 106.086V149.491H47.7254V108.864C47.7254 106.897 47.5694 105.586 47.2416 104.946C46.9137 104.306 46.2583 103.979 45.2594 103.979C43.4021 103.979 42.4811 105.508 42.4811 108.552V149.491H23.9391V108.864C23.9391 106.929 23.7673 105.617 23.4397 104.962C23.0962 104.306 22.4406 103.979 21.4573 103.979C19.6155 103.979 18.6948 105.602 18.6948 108.864V149.491H0.152527Z" fill="#5D8F7E"/>
<path fill-rule="evenodd" clip-rule="evenodd" d="M239.027 45.3518C237.103 44.4768 236.141 44.0391 236.141 44.0391C239.365 37.7309 241.334 32.63 242.047 28.7363C243.7 29.0236 245.257 29.708 246.718 30.7902C245.145 34.561 242.582 39.4147 239.027 45.3518ZM249.48 64.6093C249.095 54.4101 241.778 45.8005 231.774 43.7763C221.77 41.7519 211.681 46.8392 207.361 56.086C203.041 65.3327 205.613 76.3352 213.585 82.709C221.556 89.0825 232.855 89.1703 240.924 82.9214C238.635 79.4839 238.304 75.1012 240.052 71.3594C241.801 67.6175 245.374 65.0588 249.48 64.6093ZM240.969 44.2827C250.425 51.6818 258.12 51.7085 264.053 44.3625C256.803 37.2587 249.108 37.2322 240.969 44.2827Z" fill="#7E3362"/>
<path d="M39.1836 33.3063L56.0777 33.4312C55.5968 37.2195 54.8627 39.869 53.7835 42.0428C49.1471 51.3837 38.5637 56.7183 28.3455 56.7183C20.2969 56.7183 13.5582 54.0174 8.12971 48.6294C2.71452 43.2276 0 36.5294 0 28.5347C0 20.4861 2.76817 13.7204 8.29165 8.23775C13.8285 2.74121 20.6347 0 28.7374 0C36.7047 0 43.3554 2.69448 48.6833 8.0622C52.3759 11.7825 54.7492 15.9108 56.275 22.5414L38.6555 23.0265C35.7652 14.2545 25.232 13.7847 19.7973 19.5139C12.8101 26.9672 16.9408 40.7561 28.0756 40.7561C33.3075 40.7561 38.652 38.8585 39.1836 33.3063ZM77.9474 1.29656V55.3409H63.1195V1.29656H77.9474ZM86.5765 16.4486H101.405V38.7306C101.405 40.9991 102.323 42.1337 104.173 42.1337C105.996 42.1337 106.914 40.9991 106.914 38.7306V16.4486H121.742V38.447C121.742 43.5786 120.041 47.9 116.637 51.4245C113.234 54.9495 109.075 56.7183 104.146 56.7183C98.5282 56.7183 94.004 54.6657 90.574 50.574C87.9136 47.3734 86.5765 42.944 86.5765 37.2588V16.4486ZM144.308 1.29656V33.6529C144.308 38.9331 146.198 41.5666 149.966 41.5666C151.573 41.5666 152.937 41.0127 154.058 39.9189C155.179 38.8251 155.733 37.4882 155.733 35.9353C155.733 34.3146 155.206 32.9641 154.153 31.8703C153.099 30.7765 151.816 30.2229 150.29 30.2229C149.21 30.2229 147.968 30.6954 146.577 31.6272V15.3275C148.319 15.152 149.642 15.0709 150.533 15.0709C156.097 15.0709 160.878 17.083 164.848 21.0938C168.819 25.1046 170.803 29.9393 170.803 35.5839C170.803 41.3774 168.778 46.2524 164.74 50.2093C160.702 54.1662 155.733 56.1511 149.845 56.1511C146.887 56.1511 143.997 55.5031 141.189 54.2068C138.38 52.9102 136.057 51.1681 134.233 48.9805C131.06 45.1722 129.48 40.2564 129.48 34.2065V1.29656H144.308Z" fill="#A8518A"/>
</svg>
