<svg width="446" height="448" viewBox="0 0 446 448" fill="none" xmlns="http://www.w3.org/2000/svg">
<path fill-rule="evenodd" clip-rule="evenodd" d="M298.499 5.2817C291.662 1.96719 279.773 0 279.773 0C268.222 43.1775 258.977 68.5458 235.599 116.678L258.166 126.281C290.635 71.6763 303.272 46.7323 312.904 15.3649C312.904 15.3649 304.678 8.27705 298.499 5.2817ZM272.57 117.638C342.554 63.6695 380.405 64.5165 445.426 117.638C426.7 155.57 343.633 194.943 272.57 117.638ZM337.175 263.548C290.688 271.414 255.284 311.871 255.284 360.596C255.284 380.106 260.961 398.291 270.752 413.588C242.534 434.88 207.41 447.504 169.337 447.504C76.2581 447.504 0.802734 372.049 0.802734 278.97C0.802734 185.891 76.2581 110.436 169.337 110.436C257.217 110.436 329.387 177.697 337.175 263.548Z" fill="#7E3362"/>
</svg>
