<svg width="3233" height="1089" viewBox="0 0 3233 1089" fill="none" xmlns="http://www.w3.org/2000/svg">
<path d="M32.0436 787.925V498.651C32.0436 462.786 42.9208 433.486 64.6751 410.752C86.4295 388.017 114.651 376.65 149.341 376.65C190.498 376.65 222.149 395.563 244.296 433.388C257.819 413.005 272.322 398.503 287.804 389.879C303.287 381.06 322.396 376.65 345.13 376.65C381.191 376.65 408.825 388.017 428.032 410.752C447.238 433.486 456.842 466.215 456.842 508.94V787.925H337.487V526.873C337.487 513.938 336.409 505.413 334.253 501.297C332.293 496.985 328.177 494.829 321.906 494.829C310.147 494.829 304.267 504.825 304.267 524.815V787.925H184.912V526.873C184.912 514.134 183.834 505.609 181.678 501.297C179.523 496.985 175.309 494.829 169.037 494.829C157.278 494.829 151.399 505.511 151.399 526.873V787.925H32.0436ZM718.996 658.285V792.432C708.366 794.28 698.66 795.205 689.879 795.205C637.884 795.205 594.555 778.104 559.892 743.903C525.229 709.702 507.897 666.835 507.897 615.303C507.897 565.157 525.344 522.637 560.239 487.742C595.364 452.848 638 435.401 688.146 435.401C744.069 435.401 788.091 451.808 820.212 484.623C852.565 517.206 868.741 561.806 868.741 618.422V787.925H739.101V627.781C739.101 609.526 734.594 594.967 725.582 584.106C716.801 573.245 704.9 567.814 689.879 567.814C676.245 567.814 664.459 572.783 654.523 582.719C644.586 592.656 639.617 604.442 639.617 618.076C639.617 632.403 644.124 644.189 653.136 653.432C662.148 662.676 673.587 667.297 687.453 667.297C698.776 667.297 709.29 664.293 718.996 658.285ZM1073.95 442.334V787.925H944.307V442.334H1073.95ZM1009.47 288.083C1027.04 288.083 1042.17 294.322 1054.88 306.801C1067.82 319.048 1074.29 333.607 1074.29 350.476C1074.29 368.501 1068.17 383.291 1055.92 394.845C1043.91 406.399 1028.42 412.177 1009.47 412.177C990.524 412.177 974.926 406.399 962.678 394.845C950.661 383.291 944.653 368.501 944.653 350.476C944.653 333.607 951.008 319.048 963.718 306.801C976.659 294.322 991.911 288.083 1009.47 288.083ZM1458.36 787.925H1328.72V592.772C1328.72 572.898 1320.52 562.961 1304.11 562.961C1287.93 562.961 1279.85 572.898 1279.85 592.772V787.925H1150.21V595.198C1150.21 550.136 1165.11 512.238 1194.92 481.503C1224.73 450.537 1261.24 435.054 1304.46 435.054C1353.91 435.054 1393.54 452.964 1423.35 488.782C1446.69 516.744 1458.36 555.682 1458.36 605.597V787.925Z" fill="#5D8F7E"/>
<path d="M1719.4 601.977V697.927H1684.01V791.255H1577.58V569.207C1577.58 527.437 1590.42 492.919 1616.11 465.655C1641.98 438.216 1674.49 424.496 1713.64 424.496C1756.8 424.496 1792.89 443.109 1821.91 480.336L1734.61 544.04C1729.71 530.408 1721.06 523.592 1708.65 523.592C1692.23 523.592 1684.01 534.952 1684.01 557.672V601.977H1719.4ZM2013.02 424.496C2063.7 424.496 2107.13 442.935 2143.31 479.812C2179.66 516.688 2197.84 560.818 2197.84 612.201C2197.84 664.458 2179.58 708.85 2143.05 745.377C2106.52 781.905 2062.13 800.168 2009.87 800.168C1957.97 800.168 1913.66 781.817 1876.96 745.115C1840.26 708.413 1821.91 664.108 1821.91 612.201C1821.91 559.77 1840.34 515.378 1877.22 479.025C1914.27 442.673 1959.54 424.496 2013.02 424.496ZM2009.87 529.884C1988.03 529.884 1969.41 537.923 1954.03 554.002C1938.65 570.081 1930.96 589.481 1930.96 612.201C1930.96 634.922 1938.65 654.321 1954.03 670.4C1969.59 686.479 1988.2 694.519 2009.87 694.519C2031.89 694.519 2050.51 686.567 2065.71 670.662C2081.09 654.583 2088.78 635.096 2088.78 612.201C2088.78 589.306 2081.09 569.906 2065.71 554.002C2050.51 537.923 2031.89 529.884 2009.87 529.884ZM2417.79 424.496C2468.47 424.496 2511.91 442.935 2548.08 479.812C2584.44 516.688 2602.61 560.818 2602.61 612.201C2602.61 664.458 2584.35 708.85 2547.82 745.377C2511.29 781.905 2466.9 800.168 2414.64 800.168C2362.74 800.168 2318.43 781.817 2281.73 745.115C2245.03 708.413 2226.68 664.108 2226.68 612.201C2226.68 559.77 2245.12 515.378 2281.99 479.025C2319.04 442.673 2364.31 424.496 2417.79 424.496ZM2414.64 529.884C2392.8 529.884 2374.19 537.923 2358.81 554.002C2343.43 570.081 2335.74 589.481 2335.74 612.201C2335.74 634.922 2343.43 654.321 2358.81 670.4C2374.36 686.479 2392.97 694.519 2414.64 694.519C2436.67 694.519 2455.28 686.567 2470.48 670.662C2485.86 654.583 2493.55 635.096 2493.55 612.201C2493.55 589.306 2485.86 569.906 2470.48 554.002C2455.28 537.923 2436.67 529.884 2414.64 529.884ZM2759.38 536.175V791.255H2652.95V433.41H2791.63C2852.45 433.41 2900.07 447.217 2934.5 474.831C2975.4 507.862 2995.85 552.691 2995.85 609.317C2995.85 663.497 2978.37 707.714 2943.42 741.969C2908.46 776.225 2863.46 793.352 2808.41 793.352C2801.94 793.352 2791.37 793.003 2776.68 792.304V687.178H2793.72C2855.77 687.178 2886.79 661.225 2886.79 609.317C2886.79 560.556 2856.29 536.175 2795.3 536.175H2759.38ZM3214.23 431.837V533.816C3206.54 531.194 3200.59 529.884 3196.4 529.884C3188.36 529.884 3181.46 532.855 3175.69 538.797C3169.92 544.739 3167.04 551.905 3167.04 560.294C3167.04 567.46 3170.18 576.548 3176.48 587.558L3184.6 601.715C3199.28 627.232 3206.62 651.874 3206.62 675.643C3206.62 710.423 3194.21 739.872 3169.4 763.99C3144.75 788.109 3114.61 800.168 3078.95 800.168C3061.82 800.168 3044.87 796.236 3028.09 788.371V684.819C3038.23 691.285 3047.23 694.519 3055.1 694.519C3064.36 694.519 3072.05 691.897 3078.17 686.654C3084.46 681.236 3087.6 674.507 3087.6 666.468C3087.6 661.225 3082.62 649.777 3072.66 632.125C3056.76 604.162 3048.8 576.198 3048.8 548.235C3048.8 514.504 3060.78 485.492 3084.72 461.198C3108.84 436.73 3137.59 424.496 3170.97 424.496C3185.65 424.496 3200.07 426.943 3214.23 431.837Z" fill="#7E3362"/>
<path fill-rule="evenodd" clip-rule="evenodd" d="M1632.13 4.66847C1626.09 1.73879 1615.58 0 1615.58 0C1605.37 38.1644 1597.2 60.5873 1576.53 103.131L1596.48 111.619C1625.18 63.3543 1636.35 41.3064 1644.86 13.581C1644.86 13.581 1637.59 7.31604 1632.13 4.66847ZM1609.21 103.979C1671.07 56.2772 1704.53 57.0258 1762 103.979C1745.45 137.508 1672.03 172.309 1609.21 103.979ZM1666.32 232.949C1625.23 239.902 1593.93 275.661 1593.93 318.729C1593.93 335.974 1598.95 352.047 1607.61 365.568C1582.66 384.388 1551.62 395.546 1517.97 395.546C1435.69 395.546 1369 328.852 1369 246.58C1369 164.308 1435.69 97.6134 1517.97 97.6134C1595.64 97.6134 1659.43 157.066 1666.32 232.949Z" fill="#7E3362"/>
<path d="M1842.2 900.74H1868.89L1902.01 1000.69L1935.62 900.74H1961.93L1986.09 1044.04H1959.78L1944.39 953.541L1913.9 1044.04H1889.84L1859.73 953.541L1844.05 1044.04H1817.46L1842.2 900.74ZM2175.35 900.74H2203.01L2258.15 1044.04H2229.8L2218.6 1014.52H2160.15L2148.46 1044.04H2120.11L2175.35 900.74ZM2189.37 938.733L2170.28 987.93H2208.37L2189.37 938.733ZM2404.94 900.74H2433.87C2449.72 900.74 2460.99 902.169 2467.67 905.027C2474.43 907.819 2479.85 912.495 2483.94 919.055C2488.03 925.614 2490.08 933.375 2490.08 942.338C2490.08 951.755 2487.81 959.646 2483.26 966.01C2478.78 972.31 2471.99 977.084 2462.9 980.331L2496.8 1044.04H2466.99L2434.75 983.351H2432.21V1044.04H2404.94V900.74ZM2432.21 956.756H2440.79C2449.49 956.756 2455.46 955.619 2458.71 953.346C2462.02 951.073 2463.68 947.306 2463.68 942.046C2463.68 938.928 2462.87 936.233 2461.24 933.96C2459.62 931.622 2457.45 929.966 2454.72 928.992C2451.99 927.952 2446.99 927.433 2439.72 927.433H2432.21V956.756ZM2642.71 900.74H2670.28V950.034L2709.15 900.74H2741.98L2691.91 964.647L2746.85 1044.04H2714.51L2670.28 980.428V1044.04H2642.71V900.74ZM2890.03 900.74H2968.26V927.433H2917.11V953.346H2968.26V979.552H2917.11V1017.25H2968.26V1044.04H2890.03V900.74ZM3103.35 900.74H3182.56V927.628H3156.45V1044.04H3128.78V927.628H3103.35V900.74Z" fill="#84716B"/>
</svg>
